PathFileType	4	(X/Y/Z)	Kaydara																																																																																																																									
DataRate	CameraRate	NumFrames	NumMarkers	Units	OrigDataRate	OrigDataStartFrame	OrigNumFrames																																																																																																																					
30	30	4	41	mm	30	60	158																																																																																																																					
Frame#	Time	NABA_LFHD			NABA_RFHD			NABA_LBHD			NABA_RBHD			NABA_LFTShould			NABA_RFTShould			NABA_LRRShould			NABA_RRRShould			NABA_T10			NABA_STRN			NABA_TRUN			NABA_LSHO			NABA_LUPA			NABA_LELB			NABA_LFRM			NABA_LWRA			NABA_LWRB			NABA_LFIN			NABA_RSHO			NABA_RUPA			NABA_RELB			NABA_RFRM			NABA_RWRA			NABA_RWRB			NABA_RFIN			NABA_LFWT			NABA_RFWT			NABA_LBWT			NABA_RBWT			NABA_LTHI			NABA_LKNE			NABA_LSHN			NABA_LANK			NABA_LHEE			NABA_LTOE			NABA_RTHI			NABA_RKNE			NABA_RSHN			NABA_RANK			NABA_RHEE			NABA_RTOE		
		X1	Y1	Z1	X2	Y2	Z2	X3	Y3	Z3	X4	Y4	Z4	X5	Y5	Z5	X6	Y6	Z6	X7	Y7	Z7	X8	Y8	Z8	X9	Y9	Z9	X10	Y10	Z10	X11	Y11	Z11	X12	Y12	Z12	X13	Y13	Z13	X14	Y14	Z14	X15	Y15	Z15	X16	Y16	Z16	X17	Y17	Z17	X18	Y18	Z18	X19	Y19	Z19	X20	Y20	Z20	X21	Y21	Z21	X22	Y22	Z22	X23	Y23	Z23	X24	Y24	Z24	X25	Y25	Z25	X26	Y26	Z26	X27	Y27	Z27	X28	Y28	Z28	X29	Y29	Z29	X30	Y30	Z30	X31	Y31	Z31	X32	Y32	Z32	X33	Y33	Z33	X34	Y34	Z34	X35	Y35	Z35	X36	Y36	Z36	X37	Y37	Z37	X38	Y38	Z38	X39	Y39	Z39	X40	Y40	Z40	X41	Y41	Z41
																																																																																																																												
60	1.977	259.57954	1492.13135	-1217.64549	88.35511	1475.24246	-1202.14066	277.4622	1478.31467	-1342.57919	58.37566	1472.58057	-1299.85687	229.84568	1233.36044	-1275.14275	96.92227	1228.03589	-1314.27124	261.67253	1329.76624	-1360.90271	119.00272	1333.6792	-1395.18799	234.13954	1205.08354	-1506.20773	162.66375	1164.92271	-1266.43242	160.44825	1056.93108	-1254.0419	325.53841	1280.29083	-1272.23412	411.28212	1051.98135	-1260.57533	432.23793	986.129	-1213.28926	425.21122	913.09891	-1171.41083	354.45301	889.41994	-1011.66008	426.40263	891.17882	-1006.06537	414.10431	918.14194	-949.89754	23.21703	1285.79208	-1357.43652	27.75937	1213.16223	-1543.87924	-8.33943	1116.30051	-1624.59763	-9.02624	1053.57574	-1694.41772	38.06638	912.32635	-1735.95642	-34.6704	915.7122	-1761.68823	-11.07186	864.26262	-1778.31909	332.62745	856.54335	-1434.7966	67.36392	871.84982	-1430.56442	286.2611	958.68874	-1577.68082	116.28776	994.41719	-1574.79492	331.55033	656.7823	-1700.15152	334.95804	503.05695	-1731.09879	289.97265	328.17905	-1827.73941	316.0479	252.4967	-1975.8725	258.9529	251.71797	-2042.05933	266.41808	84.73607	-1957.58987	59.59905	616.52382	-1492.80258	77.55533	511.5715	-1316.42426	97.94864	334.13746	-1299.09546	105.91443	135.32641	-1328.96591	154.4556	84.65852	-1387.7066	127.59492	76.48894	-1204.31267
61	2.01	255.67036	1521.22635	-1174.5343	84.55375	1502.96249	-1160.60501	274.96723	1505.25375	-1298.96103	55.4966	1498.33679	-1258.58566	227.62424	1261.68129	-1228.37631	96.12075	1257.59232	-1265.75783	260.28507	1354.76227	-1316.25336	117.41996	1358.34427	-1350.49042	228.74514	1229.55704	-1460.16373	159.15723	1196.03859	-1213.00171	157.1417	1087.20474	-1201.82472	324.11873	1304.89532	-1227.52823	399.59435	1069.70299	-1232.35611	420.49126	996.15921	-1191.19362	417.35802	915.96207	-1176.82251	366.44314	826.4389	-1031.01364	438.68149	829.42795	-1032.87216	425.18684	810.94803	-964.34425	21.59095	1314.51706	-1310.46463	27.77756	1212.76505	-1493.19275	-10.57657	1109.4014	-1558.35342	-13.34609	1034.91432	-1617.51053	13.80119	879.86694	-1627.75085	-53.7509	892.06039	-1659.66064	-45.38737	837.16873	-1663.35968	329.52126	883.17276	-1391.11847	65.17711	894.94843	-1387.87445	285.61581	986.10435	-1530.35126	113.76377	1020.28671	-1529.49493	330.38624	671.24825	-1645.06958	335.71327	515.82222	-1665.2066	290.3944	343.54332	-1767.74017	317.37026	274.71207	-1917.45895	260.63852	280.72689	-1983.86047	267.82764	103.85835	-1918.49457	59.99907	634.27166	-1477.79007	73.02425	509.893	-1316.70746	90.56846	335.2927	-1305.48721	101.77273	136.56105	-1336.33728	151.55855	85.03851	-1391.81381	121.11484	77.70965	-1208.81409
62	2.043	258.59537	1547.93732	-1139.23843	87.59477	1530.89111	-1121.82961	275.34101	1531.1644	-1263.92899	56.64769	1525.8429	-1219.16832	226.80357	1290.47714	-1187.59689	94.7102	1288.95218	-1216.10634	257.96116	1378.82904	-1278.806	114.86779	1382.69119	-1310.38483	219.41319	1251.22757	-1419.16428	157.46341	1226.94145	-1167.00134	155.60413	1117.4781	-1155.93651	325.86063	1330.31403	-1192.31468	396.44535	1094.05197	-1203.95081	413.78433	1013.30849	-1171.84601	412.32239	936.36803	-1182.20657	375.63587	794.76753	-1089.3956	448.01193	804.17953	-1088.13652	425.97519	740.62065	-1042.31865	19.28205	1342.5795	-1267.49947	18.9019	1216.28609	-1440.32562	-19.42891	1104.226	-1488.74756	-22.72272	1019.17702	-1534.09637	-1.56796	861.11855	-1512.67303	-65.11974	872.30103	-1550.09674	-70.97125	824.94675	-1536.01929	324.82719	911.81717	-1344.22668	61.73699	914.31366	-1342.59491	278.70907	1010.83748	-1484.31381	108.00487	1039.04335	-1484.42413	332.32662	677.90771	-1576.16547	331.86565	518.30612	-1576.18286	284.82935	353.48106	-1691.39282	315.9222	297.26624	-1845.78552	262.33206	311.64217	-1914.78439	263.83072	132.91546	-1856.53351	64.85448	648.71506	-1459.94995	78.06833	507.90638	-1316.94901	95.3097	337.88349	-1308.60992	102.28221	138.82717	-1337.71744	149.98358	86.0401	-1393.3313	124.09199	77.04371	-1208.72528
63	2.077	264.28078	1571.16745	-1112.5708	92.9042	1554.88403	-1089.90402	276.88374	1550.35172	-1236.98143	59.37209	1547.04041	-1186.29959	228.33319	1314.86038	-1151.76254	96.04675	1314.91058	-1174.21875	255.36432	1396.4946	-1248.46046	112.29362	1401.0585	-1272.93167	209.49354	1265.08499	-1381.11237	157.86769	1253.6834	-1124.98444	155.79268	1144.58412	-1111.73393	329.41349	1352.01279	-1164.26186	394.18049	1118.50479	-1183.72208	405.31738	1030.02464	-1171.90865	401.64474	963.32001	-1203.20145	383.46233	800.17792	-1160.85403	454.36317	814.72687	-1153.7986	429.12144	731.96465	-1142.68051	18.1213	1364.76456	-1224.95369	-4.5467	1221.59782	-1385.54535	-37.36071	1103.15208	-1418.0484	-39.14508	1008.72871	-1447.08572	-10.33315	858.73428	-1391.21582	-75.16702	861.65909	-1425.62485	-86.01125	826.16615	-1399.1452	319.42474	932.94701	-1294.97177	57.11992	925.45731	-1295.64453	270.57407	1025.45616	-1440.26352	103.51085	1049.31496	-1438.08914	332.14325	676.56456	-1498.47794	328.21022	517.03518	-1477.68661	281.5687	359.1441	-1600.52124	313.98426	318.57676	-1760.03906	261.41047	336.86005	-1828.78448	264.72485	157.71777	-1777.96951	69.04469	659.33647	-1439.27734	84.00424	505.05367	-1312.37305	99.23491	340.07736	-1309.06784	103.95528	141.15874	-1338.23212	151.25493	89.28093	-1393.88046	127.95332	75.24669	-1207.12578
